<svg width="127" height="128" viewBox="0 0 127 128" fill="none" xmlns="http://www.w3.org/2000/svg">
<path d="M70.6373 7.84302L70.0637 11.0499C69.9163 11.1863 69.6989 11.3259 69.4114 11.469C69.1284 11.6088 68.7673 11.7089 68.3279 11.7692C67.8886 11.8295 67.3593 11.8043 66.7403 11.6935C66.2135 11.5993 65.7467 11.4246 65.34 11.1693C64.934 10.9101 64.6023 10.579 64.3451 10.1758C64.0917 9.77336 63.9228 9.30864 63.8385 8.78165C63.7549 8.25082 63.7701 7.66626 63.8843 7.02795L63.9885 6.4454C64.102 5.81094 64.2819 5.25979 64.5283 4.79196C64.7792 4.32096 65.0856 3.93926 65.4474 3.64684C65.8093 3.35442 66.2175 3.15759 66.6721 3.05637C67.1313 2.95199 67.63 2.94795 68.1683 3.04424C68.8566 3.16736 69.4051 3.38451 69.8137 3.6957C70.2269 4.00372 70.5204 4.38162 70.6942 4.82939C70.8681 5.27716 70.9413 5.76644 70.9138 6.29724L69.4949 6.04344C69.5011 5.74295 69.4575 5.46531 69.3642 5.21052C69.2747 4.95642 69.1186 4.742 68.8959 4.56724C68.6777 4.38933 68.3745 4.26563 67.9861 4.19617C67.6515 4.13633 67.346 4.14716 67.0696 4.22865C66.7931 4.31015 66.5482 4.45882 66.335 4.67465C66.1257 4.89117 65.947 5.16874 65.7992 5.50737C65.6513 5.846 65.5368 6.24218 65.4556 6.69591L65.3494 7.29C65.2668 7.75143 65.2416 8.16954 65.2738 8.54434C65.3098 8.91983 65.3981 9.24713 65.5386 9.52624C65.683 9.80603 65.8785 10.0335 66.1249 10.2085C66.3721 10.3797 66.6649 10.4955 67.0032 10.5561C67.3339 10.6152 67.6098 10.6368 67.8309 10.6208C68.0528 10.6009 68.2321 10.5636 68.3689 10.5087C68.5102 10.4506 68.622 10.3913 68.7043 10.3306L69.0024 8.66367L67.2548 8.35107L67.4477 7.27248L70.6373 7.84302Z" fill="#161A34"/>
<path d="M78.1734 12.7156L77.8093 13.8233L73.5065 12.409L73.8706 11.3012L78.1734 12.7156ZM76.5658 4.43425L73.9017 12.5389L72.5045 12.0796L75.1686 3.97499L76.5658 4.43425ZM78.7987 8.91827L78.44 10.0093L74.6995 8.77969L75.0581 7.68868L78.7987 8.91827ZM80.4455 5.70958L80.0796 6.82285L75.8046 5.41761L76.1706 4.30434L80.4455 5.70958Z" fill="#161A34"/>
<path d="M86.9232 7.94538L83.1098 15.5769L81.8046 14.9247L85.6181 7.29322L86.9232 7.94538ZM89.3185 9.14231L88.7947 10.1906L82.7199 7.15506L83.2437 6.10677L89.3185 9.14231Z" fill="#161A34"/>
<path d="M97.4463 13.7864L92.3276 20.6114L91.151 19.729L96.2697 12.904L97.4463 13.7864Z" fill="#161A34"/>
<path d="M105.702 20.5961L99.4755 26.4281L98.4702 25.3547L100.315 18.3844L95.8545 22.5622L94.8492 21.4888L101.076 15.6568L102.081 16.7302L100.236 23.717L104.705 19.5312L105.702 20.5961Z" fill="#161A34"/>
<path d="M114.006 30.6423L106.597 34.8728L105.874 33.6058L113.282 29.3753L114.006 30.6423ZM115.333 32.9676L114.316 33.5487L110.948 27.6515L111.966 27.0704L115.333 32.9676Z" fill="#161A34"/>
<path d="M115.702 42.7014L115.26 42.8578C114.653 43.0729 114.08 43.1866 113.541 43.199C113.003 43.2114 112.512 43.1303 112.069 42.9556C111.627 42.7846 111.244 42.5266 110.919 42.1818C110.597 41.8356 110.348 41.4139 110.172 40.9168C109.998 40.4233 109.927 39.941 109.959 39.4697C109.996 39.0007 110.131 38.5572 110.364 38.139C110.597 37.7208 110.926 37.3435 111.349 37.0071C111.775 36.6743 112.291 36.4004 112.898 36.1853L113.34 36.0289C113.948 35.8139 114.52 35.7026 115.056 35.6952C115.596 35.6865 116.087 35.7695 116.53 35.9442C116.978 36.1212 117.362 36.381 117.682 36.7235C118.007 37.0684 118.257 37.4876 118.432 37.981C118.608 38.4781 118.678 38.963 118.642 39.4356C118.61 39.9069 118.475 40.3505 118.237 40.7663C118.002 41.1808 117.672 41.5526 117.245 41.8817C116.824 42.2131 116.31 42.4864 115.702 42.7014ZM114.769 41.4714L115.222 41.3111C115.672 41.1521 116.052 40.9678 116.363 40.7582C116.679 40.551 116.923 40.3216 117.095 40.0701C117.272 39.821 117.377 39.5541 117.409 39.2693C117.444 38.9833 117.408 38.6874 117.3 38.3818C117.191 38.0762 117.034 37.8252 116.828 37.6288C116.625 37.4312 116.376 37.2894 116.081 37.2034C115.79 37.1198 115.456 37.0951 115.079 37.1292C114.705 37.162 114.293 37.2579 113.844 37.417L113.391 37.5773C112.942 37.7363 112.56 37.9212 112.245 38.1321C111.93 38.343 111.683 38.5755 111.504 38.8296C111.329 39.0861 111.224 39.3555 111.187 39.6379C111.154 39.919 111.191 40.2123 111.299 40.518C111.409 40.8273 111.565 41.0808 111.767 41.2784C111.974 41.4748 112.224 41.6141 112.518 41.6964C112.816 41.7774 113.153 41.7989 113.529 41.7611C113.907 41.727 114.32 41.6304 114.769 41.4714Z" fill="#161A34"/>
<path d="M122.206 49.7609L122.463 51.2029L116.851 52.2067C116.213 52.3209 115.654 52.2781 115.174 52.0782C114.693 51.8784 114.301 51.5597 113.997 51.1221C113.697 50.6877 113.494 50.1782 113.39 49.5937C113.282 48.99 113.293 48.4324 113.424 47.921C113.559 47.4088 113.817 46.9777 114.199 46.6276C114.581 46.2814 115.092 46.0513 115.73 45.9371L121.342 44.9332L121.6 46.3752L115.988 47.379C115.584 47.4513 115.264 47.58 115.027 47.7652C114.794 47.9497 114.639 48.1798 114.561 48.4556C114.484 48.7314 114.476 49.0423 114.538 49.3884C114.6 49.7345 114.714 50.0215 114.882 50.2494C115.051 50.4812 115.276 50.6433 115.558 50.7356C115.845 50.8273 116.19 50.837 116.593 50.7648L122.206 49.7609Z" fill="#161A34"/>
<path d="M117.918 59.6044L117.947 61.0689C117.387 61.0329 116.886 60.8862 116.444 60.6291C116.005 60.3719 115.656 60.0055 115.397 59.53C115.138 59.0544 115.001 58.4729 114.988 57.7856C114.978 57.2583 115.063 56.782 115.242 56.3566C115.425 55.9311 115.688 55.5646 116.029 55.2572C116.375 54.9497 116.794 54.7111 117.287 54.5414C117.78 54.3756 118.333 54.2868 118.947 54.2749L119.655 54.2613C120.269 54.2494 120.825 54.3188 121.324 54.4693C121.823 54.6238 122.251 54.8499 122.609 55.1478C122.97 55.4456 123.248 55.8055 123.444 56.2276C123.64 56.6536 123.743 57.1341 123.753 57.6691C123.766 58.3487 123.652 58.9252 123.412 59.3987C123.171 59.8722 122.832 60.2421 122.396 60.5084C121.959 60.7786 121.457 60.9484 120.888 61.018L120.859 59.5535C121.226 59.5073 121.538 59.4153 121.798 59.2775C122.057 59.1436 122.252 58.9483 122.384 58.6918C122.52 58.4353 122.584 58.1019 122.576 57.6919C122.569 57.356 122.501 57.0643 122.371 56.8167C122.241 56.5692 122.054 56.3638 121.808 56.2005C121.563 56.0373 121.262 55.9161 120.905 55.837C120.552 55.7618 120.149 55.7286 119.696 55.7373L118.975 55.7512C118.545 55.7595 118.156 55.8042 117.806 55.8851C117.459 55.97 117.163 56.0929 116.916 56.2539C116.669 56.4189 116.48 56.6257 116.348 56.8744C116.216 57.1231 116.153 57.4193 116.16 57.763C116.168 58.1809 116.241 58.5174 116.379 58.7726C116.516 59.0317 116.714 59.2252 116.97 59.3531C117.23 59.4848 117.547 59.5686 117.918 59.6044Z" fill="#161A34"/>
<path d="M119.994 69.5866L118.843 69.3989L119.572 64.9287L120.723 65.1164L119.994 69.5866ZM124.181 66.0484L115.761 64.675L115.997 63.2235L124.417 64.5969L124.181 66.0484ZM123.328 71.2762L114.908 69.9028L115.144 68.4571L123.564 69.8305L123.328 71.2762Z" fill="#161A34"/>
<path d="M107.993 98.0908L105.497 95.9967C105.453 95.8009 105.44 95.5428 105.459 95.2223C105.478 94.9073 105.571 94.5442 105.738 94.1332C105.904 93.7221 106.19 93.2757 106.594 92.794C106.938 92.384 107.322 92.0662 107.746 91.8406C108.173 91.6175 108.625 91.4948 109.103 91.4724C109.578 91.453 110.065 91.5379 110.564 91.7272C111.066 91.919 111.565 92.2233 112.062 92.6401L112.515 93.0205C113.009 93.4348 113.398 93.8652 113.681 94.3118C113.964 94.7639 114.143 95.2197 114.216 95.6791C114.29 96.1385 114.257 96.5905 114.118 97.0351C113.98 97.4853 113.736 97.9198 113.384 98.3388C112.935 98.8744 112.473 99.2419 112 99.4414C111.527 99.6463 111.053 99.7127 110.578 99.6406C110.103 99.5684 109.643 99.3883 109.196 99.1002L110.123 97.996C110.38 98.151 110.643 98.2514 110.91 98.2973C111.175 98.3462 111.439 98.3176 111.701 98.2115C111.964 98.1108 112.222 97.9094 112.476 97.6072C112.694 97.3469 112.837 97.0765 112.904 96.7962C112.971 96.5158 112.964 96.2295 112.883 95.9371C112.799 95.6477 112.648 95.3546 112.427 95.0578C112.207 94.7609 111.921 94.4644 111.568 94.1681L111.105 93.7801C110.746 93.4788 110.396 93.2488 110.055 93.0901C109.712 92.9344 109.384 92.848 109.072 92.8309C108.757 92.8168 108.463 92.8731 108.188 92.9997C107.917 93.1288 107.67 93.325 107.45 93.5884C107.234 93.8457 107.077 94.0742 106.981 94.274C106.888 94.4762 106.831 94.6503 106.811 94.7963C106.791 94.9478 106.786 95.0743 106.798 95.1759L108.095 96.2643L109.237 94.9043L110.076 95.6087L107.993 98.0908Z" fill="#161A34"/>
<path d="M99.7385 102.435L98.9602 101.567L102.333 98.5434L103.111 99.4116L99.7385 102.435ZM107.718 105.173L102.023 98.8211L103.118 97.8394L108.813 104.192L107.718 105.173ZM102.718 104.871L101.951 104.016L104.883 101.388L105.649 102.243L102.718 104.871ZM104.677 107.9L103.895 107.027L107.245 104.023L108.027 104.896L104.677 107.9Z" fill="#161A34"/>
<path d="M99.6657 112.229L94.9288 105.134L96.1422 104.323L100.879 111.419L99.6657 112.229ZM97.4387 113.716L96.788 112.741L102.436 108.97L103.087 109.945L97.4387 113.716Z" fill="#161A34"/>
<path d="M89.4808 118.384L86.0989 110.551L87.4491 109.968L90.831 117.801L89.4808 118.384Z" fill="#161A34"/>
<path d="M79.1594 122.233L77.2425 113.92L78.6756 113.59L83.7771 118.685L82.404 112.73L83.8371 112.399L85.754 120.713L84.3209 121.043L79.2053 115.939L80.5811 121.905L79.1594 122.233Z" fill="#161A34"/>
<path d="M66.3113 124.335L66.3772 115.804L67.8361 115.815L67.7703 124.346L66.3113 124.335ZM63.6337 124.315L63.6427 123.143L70.4335 123.195L70.4245 124.367L63.6337 124.315Z" fill="#161A34"/>
<path d="M54.9835 119.729L55.0695 119.268C55.1879 118.634 55.3766 118.081 55.6356 117.609C55.8947 117.137 56.2108 116.753 56.584 116.457C56.9533 116.161 57.3687 115.958 57.83 115.849C58.2907 115.745 58.7802 115.741 59.2986 115.838C59.8131 115.934 60.2663 116.114 60.6581 116.378C61.0453 116.645 61.3615 116.984 61.6065 117.395C61.8516 117.807 62.0135 118.28 62.0923 118.815C62.1673 119.35 62.1457 119.934 62.0273 120.567L61.9413 121.028C61.8229 121.662 61.6327 122.212 61.3705 122.68C61.1076 123.151 60.7895 123.535 60.4164 123.831C60.0386 124.13 59.6214 124.332 59.1646 124.438C58.7032 124.546 58.2153 124.552 57.7007 124.456C57.1823 124.36 56.7276 124.177 56.3365 123.909C55.9447 123.646 55.6286 123.306 55.3881 122.892C55.1469 122.481 54.9907 122.009 54.9195 121.475C54.8438 120.944 54.8651 120.362 54.9835 119.729ZM56.5152 119.538L56.427 120.01C56.3395 120.479 56.3085 120.9 56.334 121.274C56.3549 121.652 56.431 121.978 56.5625 122.253C56.6894 122.531 56.8681 122.755 57.0985 122.925C57.3283 123.099 57.6025 123.216 57.9212 123.276C58.24 123.335 58.5359 123.325 58.8092 123.245C59.0817 123.168 59.3293 123.024 59.5518 122.811C59.7698 122.602 59.9586 122.325 60.1181 121.981C60.277 121.641 60.4002 121.237 60.4877 120.769L60.5759 120.296C60.6634 119.828 60.6948 119.405 60.67 119.026C60.6453 118.648 60.5679 118.318 60.4379 118.035C60.3033 117.756 60.1231 117.529 59.8971 117.356C59.6705 117.187 59.3978 117.072 59.0791 117.013C58.7566 116.952 58.459 116.96 58.1865 117.037C57.9132 117.117 57.6673 117.263 57.4486 117.477C57.2292 117.694 57.0416 117.975 56.8858 118.32C56.7263 118.663 56.6027 119.069 56.5152 119.538Z" fill="#161A34"/>
<path d="M45.7144 121.837L44.3372 121.338L46.2798 115.978C46.5007 115.369 46.8179 114.906 47.2314 114.591C47.6449 114.275 48.1173 114.095 48.6486 114.051C49.1748 114.009 49.717 114.089 50.2753 114.291C50.8518 114.5 51.3287 114.79 51.7059 115.159C52.0818 115.532 52.3255 115.971 52.4372 116.477C52.5452 116.982 52.4887 117.539 52.2678 118.148L50.3252 123.508L48.948 123.009L50.8906 117.649C51.0303 117.264 51.0794 116.922 51.0377 116.624C50.9946 116.33 50.8732 116.081 50.6734 115.875C50.4736 115.67 50.2085 115.507 49.878 115.388C49.5474 115.268 49.2415 115.223 48.9602 115.254C48.6752 115.284 48.4221 115.398 48.2007 115.596C47.9779 115.798 47.7967 116.092 47.657 116.477L45.7144 121.837Z" fill="#161A34"/>
<path d="M39.2444 113.14L37.9644 112.428C38.277 111.963 38.6557 111.603 39.1005 111.35C39.5435 111.101 40.0357 110.983 40.5771 110.998C41.1185 111.014 41.6895 111.188 42.2903 111.523C42.7511 111.779 43.1202 112.092 43.3977 112.461C43.6733 112.833 43.858 113.244 43.9518 113.694C44.0436 114.148 44.0389 114.63 43.9377 115.142C43.833 115.651 43.6315 116.174 43.3333 116.71L42.9886 117.329C42.6904 117.865 42.3507 118.311 41.9695 118.666C41.5849 119.02 41.1741 119.277 40.7369 119.436C40.2978 119.598 39.8466 119.658 39.3834 119.615C38.9168 119.569 38.4496 119.417 37.982 119.157C37.3881 118.826 36.9471 118.438 36.659 117.991C36.371 117.545 36.2216 117.066 36.211 116.555C36.1969 116.042 36.3029 115.522 36.5291 114.995L37.8091 115.708C37.6647 116.048 37.5869 116.364 37.5756 116.657C37.561 116.949 37.6314 117.216 37.7868 117.459C37.9403 117.705 38.1962 117.928 38.5547 118.127C38.8482 118.291 39.1346 118.379 39.4138 118.391C39.6931 118.403 39.965 118.345 40.2295 118.215C40.494 118.085 40.7503 117.885 40.9982 117.616C41.2408 117.349 41.4723 117.017 41.6926 116.621L42.0431 115.992C42.252 115.616 42.4095 115.257 42.5156 114.914C42.6164 114.572 42.6593 114.254 42.6443 113.959C42.6259 113.663 42.5425 113.395 42.3939 113.156C42.2453 112.917 42.0209 112.714 41.7205 112.547C41.3552 112.343 41.0277 112.237 40.7378 112.228C40.4446 112.217 40.1782 112.29 39.9387 112.447C39.6938 112.606 39.4624 112.837 39.2444 113.14Z" fill="#161A34"/>
<path d="M29.7793 110.041L30.519 109.14L34.0202 112.013L33.2804 112.914L29.7793 110.041ZM30.7396 115.438L36.1518 108.843L37.2887 109.776L31.8764 116.371L30.7396 115.438ZM26.6451 112.077L32.0573 105.483L33.1896 106.412L27.7774 113.007L26.6451 112.077Z" fill="#161A34"/>
<path d="M11.1472 85.5438L14.2059 84.4222C14.398 84.4808 14.6282 84.5981 14.8967 84.7743C15.1601 84.9481 15.4287 85.2095 15.7023 85.5586C15.9759 85.9076 16.2209 86.3773 16.4374 86.9678C16.6217 87.4702 16.7061 87.9614 16.6907 88.4414C16.6716 88.9227 16.5529 89.376 16.3344 89.8015C16.1146 90.2232 15.7984 90.6034 15.3858 90.9419C14.9696 91.2817 14.457 91.5633 13.8482 91.7865L13.2926 91.9903C12.6875 92.2122 12.1208 92.3347 11.5926 92.3578C11.0593 92.3786 10.5752 92.3064 10.1402 92.1414C9.70528 91.9764 9.32948 91.7231 9.01285 91.3815C8.6912 91.0376 8.43625 90.609 8.24798 90.0955C8.00726 89.439 7.91825 88.8559 7.98096 88.3461C8.03866 87.834 8.21701 87.39 8.51603 87.0141C8.81505 86.6382 9.20068 86.3283 9.67293 86.0844L10.1692 87.4377C9.90656 87.5839 9.68878 87.7615 9.5158 87.9706C9.34147 88.1759 9.235 88.4189 9.19637 88.6993C9.15273 88.9774 9.19882 89.3017 9.33465 89.6721C9.45164 89.9912 9.61503 90.2495 9.82482 90.4472C10.0346 90.6449 10.2864 90.7814 10.5803 90.8567C10.8729 90.9283 11.2026 90.9426 11.5696 90.8996C11.9366 90.8565 12.3365 90.7557 12.7693 90.597L13.3359 90.3892C13.776 90.2278 14.1498 90.0388 14.4572 89.822C14.7633 89.6016 15.0015 89.3603 15.1716 89.0982C15.3404 88.8325 15.4383 88.549 15.4652 88.2479C15.4884 87.9482 15.4409 87.6369 15.3225 87.3142C15.2069 86.9988 15.0864 86.7496 14.9611 86.5668C14.8321 86.3852 14.7094 86.2492 14.593 86.1588C14.4716 86.066 14.364 85.9994 14.2701 85.9589L12.6803 86.5419L13.2915 88.2087L12.2628 88.5859L11.1472 85.5438Z" fill="#161A34"/>
<path d="M11.4979 76.2691L12.6389 76.0288L13.5723 80.4609L12.4313 80.7012L11.4979 76.2691ZM5.13844 81.8119L13.4866 80.0538L13.7896 81.4929L5.44152 83.2511L5.13844 81.8119ZM7.89876 77.6319L9.02254 77.3952L9.83399 81.2482L8.7102 81.4849L7.89876 77.6319ZM4.29681 77.8156L5.44353 77.5741L6.37089 81.9775L5.22417 82.219L4.29681 77.8156Z" fill="#161A34"/>
<path d="M3.02008 71.1807L11.5351 70.6544L11.6251 72.1106L3.11009 72.637L3.02008 71.1807ZM2.85488 68.5081L4.02452 68.4358L4.44348 75.2139L3.27384 75.2862L2.85488 68.5081Z" fill="#161A34"/>
<path d="M2.78879 59.2916L11.2631 60.2759L11.0934 61.7367L2.61911 60.7525L2.78879 59.2916Z" fill="#161A34"/>
<path d="M4.5814 48.4765L12.7443 50.9563L12.3168 52.3635L5.35716 54.248L11.2046 56.0245L10.7771 57.4317L2.61423 54.9518L3.04173 53.5446L10.016 51.6523L4.15731 49.8725L4.5814 48.4765Z" fill="#161A34"/>
<path d="M9.08897 36.3955L16.4502 40.7076L15.7128 41.9665L8.35153 37.6544L9.08897 36.3955ZM10.4424 34.085L11.4536 34.6773L8.02107 40.537L7.00991 39.9446L10.4424 34.085Z" fill="#161A34"/>
<path d="M18.7762 28.7985L19.1319 29.1038C19.6211 29.5234 20.0052 29.9636 20.2842 30.4243C20.5632 30.885 20.7374 31.3509 20.8066 31.8221C20.8785 32.2903 20.8458 32.7512 20.7088 33.205C20.5688 33.6561 20.3271 34.0818 19.9837 34.4821C19.6429 34.8793 19.2602 35.1815 18.8355 35.3885C18.4105 35.59 17.9586 35.6938 17.4798 35.6999C17.001 35.7061 16.5102 35.6092 16.0074 35.4095C15.5071 35.2067 15.0123 34.8955 14.5232 34.4758L14.1674 34.1706C13.6782 33.751 13.2969 33.3106 13.0234 32.8495C12.7469 32.3858 12.574 31.9184 12.5048 31.4472C12.4351 30.9706 12.4689 30.5081 12.6064 30.0599C12.7435 29.6062 12.9824 29.1807 13.3232 28.7834C13.6666 28.3832 14.0521 28.0808 14.4797 27.8764C14.9043 27.6694 15.3562 27.5656 15.8354 27.5649C16.3117 27.5618 16.7986 27.663 17.2964 27.8687C17.7937 28.0689 18.287 28.3789 18.7762 28.7985ZM18.1743 30.22L17.8096 29.9071C17.4479 29.5968 17.0987 29.359 16.762 29.1936C16.4248 29.0227 16.1043 28.9253 15.8005 28.9015C15.4963 28.8721 15.2128 28.9145 14.9501 29.0288C14.6844 29.1406 14.446 29.3195 14.2349 29.5655C14.0238 29.8116 13.8845 30.073 13.817 30.3496C13.7465 30.6237 13.7477 30.9103 13.8204 31.2095C13.8927 31.5031 14.0377 31.8051 14.2554 32.1153C14.47 32.423 14.7582 32.732 15.1199 33.0423L15.4846 33.3552C15.8463 33.6655 16.197 33.9046 16.5367 34.0725C16.8765 34.2405 17.2012 34.3389 17.5109 34.3678C17.8202 34.3913 18.1064 34.3486 18.3695 34.2398C18.6297 34.1285 18.8654 33.9498 19.0765 33.7038C19.2902 33.4547 19.4322 33.1932 19.5027 32.9191C19.5701 32.6424 19.5662 32.356 19.491 32.0598C19.4127 31.7611 19.2635 31.4581 19.0433 31.1508C18.8257 30.8406 18.536 30.5303 18.1743 30.22Z" fill="#161A34"/>
<path d="M21.579 19.7089L22.6977 18.7632L26.3783 23.1171C26.7969 23.6123 27.0401 24.1178 27.1077 24.6335C27.1754 25.1491 27.0961 25.6484 26.87 26.1311C26.6443 26.6083 26.3047 27.0386 25.8512 27.4219C25.3829 27.8179 24.8946 28.0874 24.3865 28.2305C23.8758 28.3707 23.3734 28.3632 22.8791 28.2081C22.3878 28.0506 21.9329 27.7242 21.5143 27.229L17.8337 22.875L18.9524 21.9294L22.633 26.2833C22.8978 26.5965 23.1696 26.8092 23.4485 26.9212C23.7248 27.0303 24.0018 27.0494 24.2794 26.9784C24.557 26.9074 24.83 26.7584 25.0985 26.5315C25.367 26.3045 25.5578 26.0613 25.671 25.8019C25.7872 25.54 25.8145 25.2638 25.7529 24.9731C25.6889 24.6795 25.5244 24.376 25.2596 24.0628L21.579 19.7089Z" fill="#161A34"/>
<path d="M32.393 18.3806L33.6487 17.6262C33.8962 18.1292 34.0187 18.6366 34.0163 19.1484C34.0119 19.6569 33.8681 20.142 33.585 20.6037C33.3018 21.0654 32.8656 21.4733 32.2763 21.8273C31.8242 22.0989 31.3691 22.2629 30.9109 22.3194C30.4507 22.3726 30.0021 22.3276 29.5653 22.1845C29.1264 22.038 28.7106 21.7934 28.3179 21.4506C27.9285 21.1058 27.5758 20.6705 27.26 20.1448L26.895 19.537C26.5791 19.0113 26.3622 18.4946 26.244 17.9869C26.1292 17.4771 26.1118 16.9931 26.192 16.5348C26.2701 16.0732 26.4434 15.6524 26.7118 15.2724C26.9836 14.8904 27.3489 14.5617 27.8076 14.2861C28.3903 13.9361 28.9469 13.7475 29.4774 13.7205C30.008 13.6934 30.4974 13.8027 30.9457 14.0483C31.3974 14.2919 31.7952 14.6431 32.1391 15.1018L30.8834 15.8561C30.6608 15.5615 30.4252 15.3361 30.1766 15.1802C29.9313 15.0222 29.6647 14.95 29.3766 14.9636C29.0865 14.9738 28.7657 15.0845 28.4141 15.2957C28.1261 15.4687 27.9072 15.6731 27.7572 15.909C27.6073 16.1449 27.5227 16.4099 27.5034 16.704C27.4842 16.9981 27.5292 17.3196 27.6386 17.6686C27.7493 18.0122 27.9213 18.3782 28.1547 18.7666L28.5258 19.3844C28.747 19.7528 28.98 20.0685 29.2247 20.3317C29.4707 20.5895 29.725 20.7853 29.9877 20.9191C30.2537 21.051 30.5274 21.1121 30.8088 21.1026C31.0901 21.0931 31.3781 20.9998 31.6728 20.8228C32.0311 20.6075 32.2865 20.3766 32.4392 20.13C32.5951 19.8814 32.6646 19.6141 32.6478 19.328C32.6322 19.0366 32.5473 18.7208 32.393 18.3806Z" fill="#161A34"/>
<path d="M39.6806 11.7589L40.0943 12.849L35.8597 14.4561L35.446 13.3659L39.6806 11.7589ZM34.5216 9.90634L37.5486 17.8825L36.1736 18.4043L33.1466 10.4282L34.5216 9.90634ZM39.4738 8.02692L42.5008 16.0031L41.1313 16.5228L38.1043 8.54667L39.4738 8.02692Z" fill="#161A34"/>
</svg>
